<svg xmlns="http://www.w3.org/2000/svg" viewBox="0 0 240.6 67.92"><defs><style>.cls-1{fill:#fff;}</style></defs><g id="圖層_2" data-name="圖層 2"><g id="圖層_1-2" data-name="圖層 1"><path class="cls-1" d="M166.13,57.31c-.14.48-.3,1-.45,1.44-.24.78-.49,1.55-.72,2.32a.42.42,0,0,0,.28.55.92.92,0,0,0,1.29-.6c.35-1.09.7-2.19,1-3.29a9.43,9.43,0,0,0,.19-1.27C166.63,56.25,166.42,56.37,166.13,57.31Z"/><path class="cls-1" d="M110.71,57.84h1.45c.08-.48.14-.92.21-1.34C111,56.07,110.7,56.66,110.71,57.84Z"/><path class="cls-1" d="M187.34,57.17c-.35,1-.61,2.07-.89,3.12-.11.4-.17.82-.29,1.37h.92a.66.66,0,0,0,.69-.53c.3-1,.62-2,.87-3.05a12.79,12.79,0,0,0,.23-1.63C187.85,56.28,187.61,56.36,187.34,57.17Z"/><path class="cls-1" d="M71.08,61.59c.31,0,.64,0,1,.06a.5.5,0,0,0,.54-.43c.16-.56.35-1.11.55-1.75A1.81,1.81,0,0,0,71.08,61.59Z"/><path class="cls-1" d="M42.94,57.3c-.19.59-.41,1.17-.58,1.76s-.21,1-.33,1.52l.52,0c.84,0,.85,0,1.15-.81.23-.63.47-1.26.64-1.91a13.87,13.87,0,0,0,.21-1.46C43.46,56.27,43.21,56.43,42.94,57.3Z"/><path class="cls-1" d="M21.53,55.9a4.68,4.68,0,0,1-.18.48c-.17.55-.35,1.11-.5,1.67-.28,1-.54,2-.82,3.08a1.35,1.35,0,0,0,2-1C22.34,59,22.68,58,23,57c.16-.58.24-1.19.36-1.81L22.81,55C21.82,54.83,21.74,54.89,21.53,55.9Z"/><path class="cls-1" d="M201.21,57.13c-.37,1-.65,2.13-1,3.19.9.61,1.53.38,1.78-.6.15-.62.36-1.23.53-1.85.12-.45.22-.9.33-1.34C201.89,56.19,201.49,56.31,201.21,57.13Z"/><path class="cls-1" d="M240.6,37.24A9,9,0,0,0,238,32.11c.23-1,.48-2,.69-3,.8-3.78,1.92-7.9,1-11.82a12.73,12.73,0,0,0-7.29-8.45,17.15,17.15,0,0,0-7-1.52c-5.82,0-11.65,0-17.47,0-.86,0-1.72.1-2.58.15a17.65,17.65,0,0,1-1.78.07c-.68,0-1.35-.22-2-.22q-9.07,0-18.16,0a9.59,9.59,0,0,0-3.52.52c-.68.27-1.36.52-2,.82a.73.73,0,0,1-.7,0,17.72,17.72,0,0,0-6.93-1.35H134.73c-.69,0-1.39,0-2.08,0-.45,0-.61-.15-.76-.58a10,10,0,0,0-3.48-4.62A11,11,0,0,0,121.76,0C115.88,0,110,0,104.12,0a22.17,22.17,0,0,0-3.05.28,10.42,10.42,0,0,0-6.93,4.47,29,29,0,0,0-1.52,2.52h-.8c-4.42,0-8.83,0-13.24,0a18.32,18.32,0,0,0-3.92.33A14,14,0,0,0,70.47,9a2,2,0,0,1-2.12,0A15.78,15.78,0,0,0,60.94,7.3c-12.48,0-25,0-37.45,0a17.66,17.66,0,0,0-12.93,5.35c-3.84,4.11-4.62,10.73-5.7,16.07q-2,9.81-4,19.63C-.44,54.53-.94,60.5,4.48,64.93,8.06,67.84,12,67.82,16.4,67.82H214.11c3.65,0,7.32.49,10.89-.5,6.67-1.85,10.82-7.15,12.66-13.61.77-2.69,1.21-5.46,1.72-8.21A45.16,45.16,0,0,0,240.6,37.24ZM27.84,59.2c-.12.46-.3.91-.43,1.36a2.81,2.81,0,0,1-2.77,2.16c-3,.34-6.08.11-9.12.18H14c.24-.95.43-1.79.67-2.63.36-1.29.75-2.58,1.11-3.87.26-.91.46-1.83.75-2.73.05-.16.39-.3.61-.33.52,0,1,0,1.55,0,1.79,0,3.57,0,5.36,0a12.57,12.57,0,0,1,3.85.53c.83.27,1.07.68.86,1.57C28.49,56.72,28.17,58,27.84,59.2Zm.95,3.67L31,55.08h5.48l-2.21,7.79Zm3.44-9.54H37l-.33,1.18H31.31C31.22,53.53,31.38,53.33,32.23,53.33Zm16.3,8.4a2.27,2.27,0,0,1-1.66,1.83,10.52,10.52,0,0,1-3.4.66c-1.61.07-3.23.06-4.84,0a5.81,5.81,0,0,1-1.72-.4c-.62-.21-.84-.66-.82-1.45h4.83a.47.47,0,0,1,.28.12c1,.78,1.81.49,2.12-.87-.63.09-1.18.22-1.73.25a29.63,29.63,0,0,1-3.26.08,2.81,2.81,0,0,1-1.27-.65c-.47-.34-.37-.92-.27-1.36a29.92,29.92,0,0,1,.84-2.9,2.83,2.83,0,0,1,2.49-2,8.17,8.17,0,0,1,4.8.53,1.55,1.55,0,0,1,1.43-.57c1.35,0,2.7,0,4.13,0l-1.55,5.22A12.48,12.48,0,0,0,48.53,61.73Zm7.12,1.05a28.75,28.75,0,0,1-5.44.06c.6-2.61,1.47-5.13,2.13-7.76h5.51C57.11,57.66,56.39,60.21,55.65,62.78Zm-3-8.26c.1-.41.19-.77.28-1.15h5.48L58,54.52Zm12.56,7.17c-.14.4-.28.77-.43,1.18-1.45,0-2.91,0-4.37,0a4.75,4.75,0,0,1-1.24-.17c-.92-.28-1-.56-.8-1.49.41-1.56.82-3.12,1.25-4.72l-1-.07c.07-.39.13-.73.2-1.14L60,55.2c.13-.36.25-.73.39-1.14h5.23c-.08.36-.17.72-.26,1.14l1.37.06c-.08.38-.16.72-.26,1.19h-1c-.39,0-.58.09-.67.56-.2,1-.53,1.94-.81,2.91-.14.47-.29.95-.48,1.56Zm13.89-4.45c-.28,1.2-.64,2.38-1,3.57-.18.67-.38,1.34-.59,2.07h-5l-.19-.49c-.08,0-.15,0-.19,0a5.43,5.43,0,0,1-2.85.67,6.41,6.41,0,0,1-2.67-.37A1,1,0,0,1,66,61.22a4.59,4.59,0,0,1,.55-1.39,3.45,3.45,0,0,1,2.14-.92c1.36-.31,2.76-.48,4.15-.72a1,1,0,0,0,1-1.1,5.68,5.68,0,0,0,0-.59c-1-.33-1.41-.13-1.67.88-.07.27-.18.52-.27.78H66.93a2.68,2.68,0,0,1,2-2.53,15.84,15.84,0,0,1,6.6-.58,8.87,8.87,0,0,1,2.63.54C79,56,79.27,56.34,79.05,57.24Zm5.84,5.54a29.24,29.24,0,0,1-5.48,0l2.69-9.43h5.48C86.68,56.53,85.79,59.64,84.89,62.78Zm14.66.07H94c.73-2.56,1.45-5.05,2.18-7.61H93a3.84,3.84,0,0,1,.32-1.64c0-.11.25-.2.4-.26a1,1,0,0,1,.34,0h11.07l.38,0c-.17.62-.34,1.2-.52,1.87H101.7Zm17.83-5.18c-.08.49-.15,1-.24,1.53h-6.93c-.21.65-.41,1.23-.57,1.82a.6.6,0,0,0,.11.51,1.3,1.3,0,0,0,1.74-.51c.14-.39.26-.8.4-1.25h5a7.89,7.89,0,0,1-.26,1,3,3,0,0,1-1.88,1.58,9.87,9.87,0,0,1-3.8.72c-1.06,0-2.13,0-3.19,0a5.58,5.58,0,0,1-2.76-1,1.11,1.11,0,0,1-.47-1,5,5,0,0,1,.11-1.28,16.18,16.18,0,0,1,.68-2.25,3.21,3.21,0,0,1,2.06-2,14.7,14.7,0,0,1,6.18-.57,11.75,11.75,0,0,1,2.62.55C117.34,56,117.59,56.43,117.38,57.67Zm13.41.36h-4.86c.09-.51.18-1,.26-1.42-.85-.46-1.31-.34-1.61.48-.24.66-.41,1.33-.6,2-.15.52-.24,1-.42,1.55-.12.34-.27.65,0,.94a1.44,1.44,0,0,0,1.3-.13,2.28,2.28,0,0,0,.43-.7,8.19,8.19,0,0,0,.26-1h4.81a11.85,11.85,0,0,1-.54,1.24,1.91,1.91,0,0,1-.65.75,9,9,0,0,1-3.39,1.16,37,37,0,0,1-4.21.12,4,4,0,0,1-3.35-1.47,5,5,0,0,1,.4-2.54c.17-.47.3-1,.44-1.44a3,3,0,0,1,2.39-2.13,15.81,15.81,0,0,1,4.75-.5,10.75,10.75,0,0,1,3.64.66C131,56.11,131.36,56.67,130.79,58Zm14.32-1.51c-.47,1.72-.92,3.45-1.38,5.17-.1.38-.17.77-.26,1.16h-5.32c.45-2.18,1.4-4.18,1.57-6.36-1-.25-1.53.07-1.74.9-.28,1.12-.61,2.22-.91,3.33-.2.69-.39,1.39-.6,2.14h-5.34c.91-3.2,1.8-6.33,2.71-9.51h5.28l-.25,1c-.07.33-.45.65,0,1a9.76,9.76,0,0,1,4.46-.34,6.48,6.48,0,0,1,1.42.5A.72.72,0,0,1,145.11,56.52Zm14,.86,0,.1q-.75,2.63-1.55,5.25a.47.47,0,0,1-.05.1.29.29,0,0,1-.18.05l-5.06,0c.55-2,1.1-4,1.66-6,.17-.64-.86-.57-1.2-.39-.76.42-.93,1.47-1.21,2.57s-.95,3.84-.95,3.84h-5.28l2.17-7.77h5.41c0,.14-.07.27-.13.5a14.92,14.92,0,0,1,5.15-.44c.71.11,1.36.48,1.39,1.28A2.76,2.76,0,0,1,159.09,57.38Zm13.81-.06A14.77,14.77,0,0,1,171.78,61a2.78,2.78,0,0,1-1.68,1.34,11.28,11.28,0,0,1-4.15.73h-1.12v0c-1-.08-2-.13-3-.26a3.05,3.05,0,0,1-1.16-.45,1.52,1.52,0,0,1-.73-1.7A12.11,12.11,0,0,1,161,57.05a3.52,3.52,0,0,1,2.27-1.61,14.52,14.52,0,0,1,4.82-.47,9.56,9.56,0,0,1,3.95.8C172.81,56.19,173.05,56.49,172.9,57.32Zm.28,5.53,2.7-9.49h5.49l-2.72,9.49Zm20.87-5c-.25.86-.51,1.72-.76,2.57a3.41,3.41,0,0,1-2.51,2.14,12.5,12.5,0,0,1-4.71.52,17.28,17.28,0,0,1-2.16,0A5.78,5.78,0,0,1,182,62.5a1.52,1.52,0,0,1-1-2c.22-.94.55-1.87.84-2.79a3.14,3.14,0,0,1,2.18-2.08,13.34,13.34,0,0,1,7.14-.36c.57.13,1.16.19,1.71.37A1.51,1.51,0,0,1,194.05,57.81ZM206.67,62a1.91,1.91,0,0,1-1.11,1.3,9.34,9.34,0,0,1-3.81.9c-1.53,0-3.06,0-4.58,0a7.68,7.68,0,0,1-1.89-.35c-.67-.2-.92-.7-.85-1.51h2.75c.63,0,1.26,0,1.9,0a.79.79,0,0,1,.48.22,1.16,1.16,0,0,0,1.35.16.87.87,0,0,0,.52-1.12,4.19,4.19,0,0,0-.71.1,9.69,9.69,0,0,1-4.48.09,2,2,0,0,1-1.07-.63,1,1,0,0,1-.22-1.09,24.32,24.32,0,0,0,.8-2.64,3.1,3.1,0,0,1,.61-1.34,3,3,0,0,1,1.9-1,7.48,7.48,0,0,1,4.6.4.68.68,0,0,0,.59-.13,1,1,0,0,1,.74-.34c1.47,0,2.94,0,4.48,0-.28,1-.52,2-.8,3C207.48,59.39,207,60.7,206.67,62Zm13.23-3.68c-.67,1.21-1.39,2.39-2.05,3.61a3.42,3.42,0,0,1-2.21,1.71,8.07,8.07,0,0,1-2,.29c-1.78,0-3.56,0-5.42,0a4.83,4.83,0,0,1,.23-1c.07-.14.38-.19.59-.22.47-.07.94-.11,1.47-.16-.18-2.59-.77-5-1.09-7.47h4.86l.21,4.64h.29l2.08-4.65h4.79C221,56.23,220.48,57.29,219.9,58.35ZM235,38.77c-.06.36-.15.71-.24,1.06A5,5,0,0,1,233,42.29a20.57,20.57,0,0,1-4.88,3.28,19.62,19.62,0,0,1-4.52,1.54,14.49,14.49,0,0,1-2.8.2c-3.92,0-7.85,0-11.77,0a8.4,8.4,0,0,1-5.59-2.2c-.66-.62-1.25-1.32-1.93-2a1.33,1.33,0,0,0-.24.33,5.84,5.84,0,0,1-3.53,3.54,6.56,6.56,0,0,1-2.49.42q-9,0-18,0A5.1,5.1,0,0,1,173.47,46c-.38-.37-.7-.8-1.08-1.25-.61.36-1.25.76-1.91,1.11a13,13,0,0,1-6.16,1.52q-18.56,0-37.11,0a11.45,11.45,0,0,1-4.85-.91,8,8,0,0,1-1.63-1,1.27,1.27,0,0,0-1.67-.18,13.64,13.64,0,0,1-2.36,1.09,16.57,16.57,0,0,1-2.41.68c-3.4.72-6.86.22-10.29.34a49.23,49.23,0,0,1-5,0,6.9,6.9,0,0,1-2.81-.74,2.28,2.28,0,0,0-2.09-.07,12.49,12.49,0,0,1-4.64.87c-5.77,0-11.53,0-17.3,0a10.64,10.64,0,0,1-5-1,9.31,9.31,0,0,1-3.25-2.8A23.38,23.38,0,0,1,62.08,45a12,12,0,0,1-5.31,2.13,15.16,15.16,0,0,1-2.13.16l-37.2,0a10.67,10.67,0,0,1-4.29-.71,8.75,8.75,0,0,1-4.24-3.49A5.7,5.7,0,0,1,8,39.36c0-.35,0-.57,0-.89.11-.72.17-1.44.31-2.14.5-2.39,1-4.78,1.53-7.16.44-2,.9-4,1.33-6,.32-1.53.56-3.08.94-4.59a8.36,8.36,0,0,1,1.73-3.36,11.7,11.7,0,0,1,5.81-3.77,13.18,13.18,0,0,1,3.7-.52q18.74,0,37.46,0A10.66,10.66,0,0,1,67.34,13,15.3,15.3,0,0,1,69,14.66c.68-.51,1.32-1,2-1.49a11.89,11.89,0,0,1,4.25-1.89,15.89,15.89,0,0,1,3.82-.34l17.56,0a1.36,1.36,0,0,0,.27,0A27.86,27.86,0,0,1,97.51,8a6.54,6.54,0,0,1,1.14-2.05,5.9,5.9,0,0,1,4.88-2.28c2.59.06,5.19,0,7.79,0,3.54,0,7.09,0,10.64,0a5.09,5.09,0,0,1,4.51,2.51A4.4,4.4,0,0,1,127.06,8a11.63,11.63,0,0,1-.54,4.19,1.9,1.9,0,0,0,0,.42,6,6,0,0,0,1-.42,7.66,7.66,0,0,1,3.24-1,26.78,26.78,0,0,1,3-.21q18.18,0,36.34,0a12.5,12.5,0,0,1,5.5,1.19A17.11,17.11,0,0,1,178,13.74a7.14,7.14,0,0,0,.63-.62,5.83,5.83,0,0,1,4.74-2.19c3.12,0,6.23,0,9.35,0h8.47a4.44,4.44,0,0,1,2.18.37,1.48,1.48,0,0,0,1.21.06,10.14,10.14,0,0,1,3.38-.43h17.3a12,12,0,0,1,4.85,1,7.39,7.39,0,0,1,4,3.81,6.82,6.82,0,0,1,.49,4.63c-.43,1.5-.62,3.07-.94,4.6s-.6,2.74-.9,4.11-.54,2.52-.8,3.78a1.78,1.78,0,0,0,0,.38,3.53,3.53,0,0,1,2.25,1,4,4,0,0,1,1,2A6,6,0,0,1,235,38.77Z"/><path class="cls-1" d="M214.6,60.22l.17-.47h-.29v.45Z"/><path class="cls-1" d="M214.48,60.19v-.45h0Z"/><path class="cls-1" d="M214.77,59.75h0l-.17.47Z"/><path class="cls-1" d="M227.55,36.13a1.15,1.15,0,0,1,0-.26c.32-1.71.63-3.43,1-5.13.29-1.43.67-2.83,1-4.25.48-2.31.89-4.64,1.42-6.94A3.3,3.3,0,0,0,229.66,16a6.73,6.73,0,0,0-4.33-1.39c-5.74,0-11.48,0-17.21,0a9.05,9.05,0,0,0-4.58,1.08.7.7,0,0,1-1-.24c-.21-.29-.45-.57-.67-.85h-.55c-6.05,0-12.11,0-18.17,0a2.31,2.31,0,0,0-1.29.52c-.82.56-.87,1.49-1.08,2.3-.36,1.34-.56,2.72-.84,4.09-.24,1.2-.5,2.4-.76,3.6s-.58,2.51-.84,3.77c-.31,1.47-.58,3-.89,4.43-.15.73-.35,1.45-.54,2.18-.35-.32-.66-.57-.93-.86a4.26,4.26,0,0,0-2.3-1.36,27.69,27.69,0,0,0-3.59-.59c-2.1-.11-4.21-.09-6.31-.06-3,.06-6.08-.21-9.11.28a7.57,7.57,0,0,0-2.71.92,3.15,3.15,0,0,0-1.49,1.91,4.66,4.66,0,0,1-1.51,2.6,3.68,3.68,0,0,1-2.53,1,2.36,2.36,0,0,1-2-1.77,9.76,9.76,0,0,1,.12-2.29c.14-.88.38-1.75.57-2.63l.55-2.64h.94c6.9,0,13.79,0,20.68,0a9,9,0,0,0,5.4-1.67,4.73,4.73,0,0,0,2-2.47c.23-.83.47-1.66.66-2.51.27-1.23.43-2.48.74-3.7a3.52,3.52,0,0,0-1.38-3.82,8,8,0,0,0-4.49-1.21q-18.33,0-36.68,0a9.14,9.14,0,0,0-5.86,1.8,5.17,5.17,0,0,0-2.16,3.22c-.08.46-.22.92-.32,1.39-.19.81-.38,1.63-.55,2.45-.34,1.59-.65,3.19-1,4.77-.24,1.13-.5,2.24-.75,3.36-.34,1.56-.73,3.1-1,4.68a1.51,1.51,0,0,1-1,1.24,4.67,4.67,0,0,1-.94.36,1.71,1.71,0,0,1-2.19-1.87,8.08,8.08,0,0,1,.08-.86c.39-1.8.83-3.6,1.2-5.41.49-2.36.92-4.73,1.41-7.08.43-2.08.93-4.15,1.38-6.23.48-2.24.91-4.5,1.38-6.74.38-1.83,0-2.36-1.87-2.36H104a6.77,6.77,0,0,0-.78,0,2.26,2.26,0,0,0-2.11,1.87c-.15.59-.26,1.2-.38,1.8-.29,1.36-.56,2.73-.85,4.09a2,2,0,0,1-.28.55,8.77,8.77,0,0,0-4.25-1H79a11.63,11.63,0,0,0-4.4.76,7.1,7.1,0,0,0-3.38,2.71,3.2,3.2,0,0,0-.53.95c-.39,1.66-.73,3.33-1.08,5s-.64,3.14-1,4.7-.62,3-1,4.51c-.16.75-.35,1.49-.57,2.37-.49-.51-.86-.95-1.29-1.32a4.41,4.41,0,0,0-1.19-.79,12,12,0,0,0-4.3-.82c-4.26-.08-8.53-.08-12.8,0a10.34,10.34,0,0,0-5.11,1.08,3.27,3.27,0,0,0-1.75,2.15A4.4,4.4,0,0,1,38.2,39c-1.47.66-2.76.37-3.41-1.21a4.26,4.26,0,0,1,0-2.45c.18-.94.4-1.87.61-2.8s.4-1.68.6-2.54h1c6.66,0,13.32,0,20,0a10.23,10.23,0,0,0,4.31-.73,6.5,6.5,0,0,0,4.2-5,38.64,38.64,0,0,1,.91-4.43,3.82,3.82,0,0,0-2.22-4.47,9.67,9.67,0,0,0-3.8-.73q-18.18,0-36.34,0a19.06,19.06,0,0,0-2.8.32,7.31,7.31,0,0,0-4.37,2.5,4.76,4.76,0,0,0-1,1.74c-.33,1.16-.5,2.36-.74,3.54s-.46,2.42-.72,3.63-.58,2.44-.84,3.66c-.31,1.48-.58,3-.88,4.44s-.62,2.91-.9,4.37c-.37,1.91.63,3.1,2,3.94a6.79,6.79,0,0,0,3.54.84c12.23,0,24.45,0,36.68,0a10.57,10.57,0,0,0,4.44-.8c1.85-.84,3.34-2,3.87-4.06a2.39,2.39,0,0,1,1-1.5,2.7,2.7,0,0,1,2.4-.35,1,1,0,0,1,.82,1.39A4.15,4.15,0,0,0,66.84,41a4.24,4.24,0,0,0,2.56,2.19,8.48,8.48,0,0,0,3,.48c5.54,0,11.08,0,16.62,0a10.35,10.35,0,0,0,2.3-.17A8.21,8.21,0,0,0,95,41.8a.58.58,0,0,1,.9.06,5.87,5.87,0,0,0,4.55,1.76c3.54,0,7.09,0,10.64,0a8.73,8.73,0,0,0,2.23-.15,14.74,14.74,0,0,0,5.28-2.3c.93-.68,1.84-1.4,2.77-2.1,0,0,0,0,0,0a1,1,0,0,1,0,.25,3.79,3.79,0,0,0,2.34,3.54,6.83,6.83,0,0,0,3.3.75q18.52,0,37,0A9.76,9.76,0,0,0,169,42.45a6,6,0,0,0,3.16-3.77c.42-1.59,1.76-2.15,3.36-1.84a1.16,1.16,0,0,1,.92,1.27c-.06.35-.18.69-.25,1-.18.91-.35,1.82-.5,2.74a1.34,1.34,0,0,0,.59,1.5,3.36,3.36,0,0,0,1.42.21h17.57a4.11,4.11,0,0,0,1.11-.11,2,2,0,0,0,1.52-1.57c.33-1.64.68-3.28,1-4.92.29-1.34.6-2.68.88-4,.24-1.11.44-2.24.69-3.35.5-2.27,1.08-4.52,1.52-6.8a5.27,5.27,0,0,1,2-3.38,2.76,2.76,0,0,1,3.5.22,3,3,0,0,1,.54,2.89c-.16.59-.36,1.17-.49,1.76-.29,1.37-.53,2.75-.82,4.12-.23,1.13-.51,2.24-.75,3.36-.34,1.61-.68,3.22-1,4.84-.16.85-.32,1.71-.42,2.57a3.33,3.33,0,0,0,1.67,3.29,6.38,6.38,0,0,0,3.86,1.12c3.48-.05,7,0,10.46,0a12.59,12.59,0,0,0,3.46-.44,16.31,16.31,0,0,0,5.79-3,3.85,3.85,0,0,0,1.73-3,13.06,13.06,0,0,1-1.47.79A1.79,1.79,0,0,1,227.55,36.13ZM147.35,22a4.43,4.43,0,0,1,3.16-3c2-.12,3.12,1,2.8,3.19-.11.7-.29,1.38-.43,2.07l-.44,2.14h-5.81l-.14-.16C146.77,24.79,147.06,23.37,147.35,22Zm-109.68.1A4,4,0,0,1,40.8,19a2.26,2.26,0,0,1,2.75,2,9.79,9.79,0,0,1-.13,2c-.06.58-.23,1.15-.34,1.73s-.22,1.1-.34,1.76c-.93.06-1.9,0-2.87,0l-2.94,0-.15-.16C37.07,24.82,37.28,23.41,37.67,22.05ZM98.43,22c-.34,1.62-.73,3.23-1.08,4.84s-.7,3.35-1,5c-.29,1.4-.57,2.8-.89,4.2a4.15,4.15,0,0,1-3,3.23,3.86,3.86,0,0,1-.76.1c-1.13.16-2.46-1.24-2.22-2.85.18-1.23.41-2.45.66-3.66s.57-2.44.84-3.66c.33-1.53.64-3.06.95-4.59.15-.74.24-1.5.43-2.23a4.66,4.66,0,0,1,1.61-2.58,4.47,4.47,0,0,1,1.15-.68A2.48,2.48,0,0,1,98.43,22Z"/></g></g></svg>